HIERARCHY
ROOT SpineBase
{
  OFFSET 0.000000 0.000000 0.000000
  CHANNELS 6 Xposition Yposition Zposition Zrotation Xrotation Yrotation
  JOINT SpineMid
  {
    OFFSET 0.000000 31.401142 0.000000
    CHANNELS 3 Zrotation Xrotation Yrotation
    JOINT SpineShoulder
    {
      OFFSET -0.468616 23.504233 -0.788182
      CHANNELS 3 Zrotation Xrotation Yrotation
      JOINT Neck
      {
        OFFSET -0.298004 7.838198 -0.583871
        CHANNELS 3 Zrotation Xrotation Yrotation
        JOINT Head
        {
          OFFSET -1.519972 9.023416 6.331742
          CHANNELS 3 Zrotation Xrotation Yrotation
          End Site
          {
            OFFSET 0 0 0
          }
        }
      }
      JOINT ShoulderLeft
      {
        OFFSET -1.959515 -7.290891 12.440966
        CHANNELS 3 Zrotation Xrotation Yrotation
        JOINT ElbowLeft
        {
          OFFSET -2.558892 -30.004516 6.285699
          CHANNELS 3 Zrotation Xrotation Yrotation
          JOINT WristLeft
          {
            OFFSET -0.817084 -31.662895 -0.531565
            CHANNELS 3 Zrotation Xrotation Yrotation
            JOINT HandLeft
            {
              OFFSET 2.974590 -2.382582 5.184851
              CHANNELS 3 Zrotation Xrotation Yrotation
              JOINT HandTipLeft
              {
                OFFSET -0.042014 -2.234248 -0.715199
                CHANNELS 3 Zrotation Xrotation Yrotation
                End Site
                {
                  OFFSET 0 0 0
                }
              }
              JOINT ThumbLeft
              {
                OFFSET -0.564509 2.124824 -3.187029
                CHANNELS 3 Zrotation Xrotation Yrotation
                End Site
                {
                  OFFSET 0 0 0
                }
              }
            }
          }
        }
      }
      JOINT ShoulderRight
      {
        OFFSET -3.134235 -2.559998 -11.878259
        CHANNELS 3 Zrotation Xrotation Yrotation
        JOINT ElbowRight
        {
          OFFSET -8.955302 -26.777565 -3.673056
          CHANNELS 3 Zrotation Xrotation Yrotation
          JOINT WristRight
          {
            OFFSET -6.292535 -27.434453 6.233297
            CHANNELS 3 Zrotation Xrotation Yrotation
            JOINT HandRight
            {
              OFFSET -0.054801 -5.954198 1.185410
              CHANNELS 3 Zrotation Xrotation Yrotation
              JOINT HandTipRight
              {
                OFFSET -0.124736 -5.955412 1.442780
                CHANNELS 3 Zrotation Xrotation Yrotation
                End Site
                {
                  OFFSET 0 0 0
                }
              }
              JOINT ThumbRight
              {
                OFFSET -4.566692 0.774032 -0.431265
                CHANNELS 3 Zrotation Xrotation Yrotation
                End Site
                {
                  OFFSET 0 0 0
                }
              }
            }
          }
        }
      }
    }
  }
  JOINT HipLeft
  {
    OFFSET -1.735172 2.125433 -1.622064
    CHANNELS 3 Zrotation Xrotation Yrotation
    JOINT KneeLeft
    {
      OFFSET 0.905595 -41.042231 -2.313538
      CHANNELS 3 Zrotation Xrotation Yrotation
      JOINT AnkleLeft
      {
        OFFSET 5.338294 -41.807968 8.743838
        CHANNELS 3 Zrotation Xrotation Yrotation
        JOINT FootLeft
        {
          OFFSET -8.810267 -1.494164 -7.992707
          CHANNELS 3 Zrotation Xrotation Yrotation
          End Site
          {
            OFFSET 0 0 0
          }
        }
      }
    }
  }
  JOINT HipRight
  {
    OFFSET -1.348064 1.254345 -4.541528
    CHANNELS 3 Zrotation Xrotation Yrotation
    JOINT KneeRight
    {
      OFFSET 11.426684 -39.480663 8.699203
      CHANNELS 3 Zrotation Xrotation Yrotation
      JOINT AnkleRight
      {
        OFFSET -8.128091 -31.858743 -8.420622
        CHANNELS 3 Zrotation Xrotation Yrotation
        JOINT FootRight
        {
          OFFSET -3.319104 -8.190702 0.551206
          CHANNELS 3 Zrotation Xrotation Yrotation
          End Site
          {
            OFFSET 0 0 0
          }
        }
      }
    }
  }
}
MOTION
Frames: 5
Frame Time: 0.033333
120.817845 82.416923 324.380778 -0.000000 0.000000 82.446903 -0.000000 0.000000 -82.446903 -0.000000 0.000000 0.000000 -0.000000 0.000000 0.000000 0.000000 0.000000 0.000000 -0.000000 0.000000 0.000000 -0.000000 0.000000 0.000000 -0.000000 0.000000 0.000000 -0.000000 0.000000 0.000000 0.000000 0.000000 0.000000 0.000000 0.000000 0.000000 -0.000000 0.000000 0.000000 -0.000000 0.000000 0.000000 -0.000000 0.000000 0.000000 -0.000000 0.000000 0.000000 0.000000 0.000000 0.000000 0.000000 0.000000 0.000000 -0.000000 0.000000 -82.446903 -0.000000 0.000000 0.000000 -0.000000 0.000000 0.000000 0.000000 0.000000 0.000000 -0.000000 0.000000 -82.446903 -0.000000 0.000000 0.000000 -0.000000 0.000000 0.000000 0.000000 0.000000 0.000000
120.897742 82.422121 324.491503 0.381678 0.105093 80.884954 -0.164230 0.360209 -80.884787 -0.000000 0.000000 0.000000 -0.542038 -1.058818 0.198427 0.000000 0.000000 0.000000 -0.000000 0.000000 0.000000 -0.000000 0.000000 0.000000 -0.000000 0.000000 0.000000 -0.000000 0.000000 0.000000 0.000000 0.000000 0.000000 0.000000 0.000000 0.000000 -0.000000 0.000000 0.000000 -0.000000 0.000000 0.000000 0.137901 -0.922816 0.037000 -6.895826 -1.191287 -1.636207 0.000000 0.000000 0.000000 0.000000 0.000000 0.000000 -0.164230 0.360209 -80.884787 -0.000000 0.000000 0.000000 1.544227 -3.162671 13.439710 0.000000 0.000000 0.000000 0.247692 1.388273 -80.935697 -0.068911 0.348022 0.082320 7.360290 -2.267265 1.147761 0.000000 0.000000 0.000000
120.923265 82.433087 324.590981 0.694342 0.203536 80.083370 -0.320075 0.648916 -80.082790 -0.000000 0.000000 0.000000 -0.975633 -1.980302 0.338740 0.000000 0.000000 0.000000 -0.000000 0.000000 0.000000 -0.000000 0.000000 0.000000 -0.000000 0.000000 0.000000 -0.000000 0.000000 0.000000 0.000000 0.000000 0.000000 0.000000 0.000000 0.000000 -0.003428 1.265866 -0.422211 0.677845 -0.574754 0.427961 -0.517817 -2.413477 0.051275 -11.899663 -1.700554 -2.799471 0.000000 0.000000 0.000000 0.000000 0.000000 0.000000 0.146554 1.702054 -80.024278 2.112431 -0.591483 0.197776 2.771136 -6.101464 27.739217 0.000000 0.000000 0.000000 0.305237 2.336577 -80.179872 -0.178510 0.652604 0.148928 12.167594 -3.456743 1.963093 0.000000 0.000000 0.000000
120.894415 82.449822 324.679212 0.938022 0.295333 79.791307 0.123170 0.154373 -79.759499 -0.074927 0.014510 0.035706 -2.031811 -3.204566 0.336433 0.000000 0.000000 0.000000 -0.733556 -0.457456 -0.074960 -0.000000 0.000000 0.000000 -0.000000 0.000000 0.000000 -0.000000 0.000000 0.000000 0.000000 0.000000 0.000000 0.000000 0.000000 0.000000 -0.697704 1.319415 -0.672918 0.948920 -0.785040 0.615131 -0.912360 -3.431452 0.032642 -15.186836 -1.678317 -3.491068 0.000000 0.000000 0.000000 0.000000 0.000000 0.000000 0.171373 2.263609 -79.717368 2.876519 -0.824809 0.286766 4.796634 -7.976456 39.988458 0.000000 0.000000 0.000000 0.220649 2.848844 -79.921219 -0.250485 0.848442 0.194075 14.710830 -3.694889 2.268339 0.000000 0.000000 0.000000
120.811190 82.472326 324.756195 1.112751 0.380493 79.887151 0.156646 0.192049 -79.850239 -0.084492 0.022708 0.043220 -2.366117 -3.939110 0.341813 0.000000 0.000000 0.000000 -0.867568 -0.589757 -0.091506 -0.000000 0.000000 0.000000 -0.000000 0.000000 0.000000 -0.000000 0.000000 0.000000 0.000000 0.000000 0.000000 0.000000 0.000000 0.000000 -0.768299 1.610489 -0.839732 1.169301 -0.944365 0.780059 -1.375296 -4.355545 -0.015153 -16.981382 -1.234699 -3.762691 0.000000 0.000000 0.000000 0.000000 0.000000 0.000000 0.184923 2.628450 -79.805933 3.444193 -1.015441 0.364389 6.115298 -8.828857 47.730860 0.000000 0.000000 0.000000 0.009243 2.930684 -80.035242 -0.245877 0.903888 0.214046 15.158351 -3.030393 1.990566 0.000000 0.000000 0.000000
